<svg width="30" height="30" viewBox="0 0 30 30" fill="none" xmlns="http://www.w3.org/2000/svg">
<path fill-rule="evenodd" clip-rule="evenodd" d="M20.7747 0.751048C21.7212 0.751048 22.6662 0.884548 23.5647 1.18605C29.1012 2.98605 31.0962 9.06105 29.4297 14.371C28.4847 17.0845 26.9397 19.561 24.9162 21.5845C22.0197 24.3895 18.8412 26.8795 15.4197 29.0245L15.0447 29.251L14.6547 29.0095C11.2212 26.8795 8.02472 24.3895 5.10122 21.5695C3.09122 19.546 1.54472 17.0845 0.58472 14.371C-1.11028 9.06105 0.88472 2.98605 6.48122 1.15455C6.91622 1.00455 7.36472 0.899548 7.81472 0.841048H7.99472C8.41622 0.779548 8.83472 0.751048 9.25472 0.751048H9.41972C10.3647 0.779548 11.2797 0.944548 12.1662 1.24605H12.2547C12.3147 1.27455 12.3597 1.30605 12.3897 1.33455C12.7212 1.44105 13.0347 1.56105 13.3347 1.72605L13.9047 1.98105C14.0425 2.05451 14.1971 2.16675 14.3307 2.26376C14.4153 2.32522 14.4915 2.38056 14.5497 2.41605C14.5742 2.43049 14.5991 2.44501 14.6242 2.45965C14.7528 2.53473 14.8867 2.61294 14.9997 2.69955C16.6662 1.42605 18.6897 0.736048 20.7747 0.751048ZM24.7647 11.551C25.3797 11.5345 25.9047 11.041 25.9497 10.4095V10.231C25.9947 8.12955 24.7212 6.22605 22.7847 5.49105C22.1697 5.27955 21.4947 5.61105 21.2697 6.24105C21.0597 6.87105 21.3897 7.56105 22.0197 7.78455C22.9812 8.14455 23.6247 9.09105 23.6247 10.1395V10.186C23.5962 10.5295 23.6997 10.861 23.9097 11.116C24.1197 11.371 24.4347 11.5195 24.7647 11.551Z" fill="#91C788"/>
</svg>
