<svg width="28" height="30" viewBox="0 0 28 30" fill="none" xmlns="http://www.w3.org/2000/svg">
<path d="M10.2097 26.6952V22.6062C10.2096 21.5662 11.0575 20.7211 12.1081 20.7141H15.9562C17.0117 20.7141 17.8674 21.5613 17.8674 22.6062V22.6062V26.7079C17.8671 27.5909 18.579 28.3126 19.4708 28.3333H22.0362C24.5935 28.3333 26.6667 26.2809 26.6667 23.7491V23.7491V12.1171C26.653 11.1211 26.1807 10.1858 25.384 9.57738L16.6103 2.58041C15.0733 1.36209 12.8883 1.36209 11.3513 2.58041L2.61607 9.59008C1.81639 10.196 1.34322 11.1329 1.33337 12.1298V23.7491C1.33337 26.2809 3.40654 28.3333 5.96392 28.3333H8.52932C9.44318 28.3333 10.184 27.5999 10.184 26.6952V26.6952" stroke="#999999" stroke-width="1.5" stroke-linecap="round" stroke-linejoin="round"/>
</svg>
